<?xml version="1.0" encoding="UTF-8"?>
<svg width="100px" height="100px" viewBox="0 0 100 100" version="1.1" xmlns="http://www.w3.org/2000/svg" xmlns:xlink="http://www.w3.org/1999/xlink">
    <!-- Generator: Sketch 48.2 (47327) - http://www.bohemiancoding.com/sketch -->
    <title>18- pseudo-code</title>
    <desc>Created with Sketch.</desc>
    <defs></defs>
    <g id="Page-1" stroke="none" stroke-width="1" fill="none" fill-rule="evenodd">
        <g id="18--pseudo-code">
            <g transform="translate(3.000000, 3.500000)">
                <path d="M93.2327975,46.5 C93.2327975,72.1807875 72.4495136,93 46.8130444,93 C21.1754148,93 0.393291358,72.1807875 0.393291358,46.5 C0.393291358,20.8192125 21.1754148,0 46.8130444,0 C72.4495136,0 93.2327975,20.8192125 93.2327975,46.5" id="Fill-1" fill-opacity="0.1" fill="#FF0081"></path>
                <path d="M71.2128914,77.8375125 C71.2128914,78.945375 59.6578543,79.842825 45.4046691,79.842825 C31.151484,79.842825 19.5952864,78.945375 19.5952864,77.8375125 C19.5952864,76.72965 31.151484,75.8322 45.4046691,75.8322 C59.6578543,75.8322 71.2128914,76.72965 71.2128914,77.8375125" id="Fill-3" fill-opacity="0.25" fill="#FF0081"></path>
                <path d="M64.2737185,60.6453 L31.010484,69.8650875 C29.774558,70.208025 28.4968543,69.4814625 28.1545086,68.2445625 L16.5809037,26.3410875 C16.238558,25.103025 16.9627062,23.8231125 18.1986321,23.480175 L49.2244346,14.8811625 C50.4603605,14.538225 51.7392247,15.263625 52.0804099,16.5016875 L64.2737185,60.6453 Z" id="Fill-5" fill-opacity="0.25" fill="#FF0081"></path>
                <path d="M64.2737185,60.6453 L31.010484,69.8650875 C29.774558,70.208025 28.4968543,69.4814625 28.1545086,68.2445625 L16.5809037,26.3410875 C16.238558,25.103025 16.9627062,23.8231125 18.1986321,23.480175 L49.2244346,14.8811625 C50.4603605,14.538225 51.7392247,15.263625 52.0804099,16.5016875 L64.2737185,60.6453 Z" id="Stroke-7" stroke="#FF0081" stroke-linecap="round" stroke-linejoin="round"></path>
                <path d="M31.0941556,22.357665 L63.2862543,22.357665 C64.5686,22.357665 65.607242,23.3981025 65.607242,24.682665 L65.607242,68.160165 C65.607242,69.443565 64.5686,70.485165 63.2862543,70.485165 L31.0941556,70.485165 C29.8129704,70.485165 28.7731679,69.443565 28.7731679,68.160165 L28.7731679,24.682665 C28.7731679,23.3981025 29.8129704,22.357665 31.0941556,22.357665" id="Fill-9" fill="#FFFFFF"></path>
                <path d="M63.2866025,70.4850488 L31.0945037,70.4850488 C29.812158,70.4850488 28.773516,69.4434488 28.773516,68.1600488 L28.773516,24.6825487 C28.773516,23.3979862 29.812158,22.3575487 31.0945037,22.3575487 L63.2866025,22.3575487 C64.5677877,22.3575487 65.6075901,23.3979862 65.6075901,24.6825487 L65.6075901,68.1600488 C65.6075901,69.4434488 64.5677877,70.4850488 63.2866025,70.4850488 Z" id="Stroke-11" stroke="#FF0081" stroke-linecap="round" stroke-linejoin="round"></path>
                <polyline id="Stroke-13" stroke="#FF0081" stroke-linecap="round" stroke-linejoin="round" points="40.7843951 31.9829325 36.7806914 35.9935575 40.7843951 40.0041825"></polyline>
                <polyline id="Stroke-15" stroke="#FF0081" stroke-linecap="round" stroke-linejoin="round" points="49.5930074 31.9829325 53.5967111 35.9935575 49.5930074 40.0041825"></polyline>
                <path d="M46.3896963,31.9829325 L43.1867333,40.0041825" id="Stroke-17" stroke="#FF0081" stroke-linecap="round" stroke-linejoin="round"></path>
                <path d="M35.1792099,46.4210663 L55.9984691,46.4210663" id="Stroke-19" stroke="#FF0081" stroke-linecap="round" stroke-linejoin="round"></path>
                <path d="M35.1792099,51.2340487 L50.393284,51.2340487" id="Stroke-21" stroke="#FF0081" stroke-linecap="round" stroke-linejoin="round"></path>
                <path d="M35.1792099,56.046915 L46.3895802,56.046915" id="Stroke-23" stroke="#FF0081" stroke-linecap="round" stroke-linejoin="round"></path>
                <polygon id="Fill-25" fill="#FFFFFF" points="61.6103852 60.5771775 57.0809778 56.03994 78.5965333 34.48719 83.1271012 39.0244275"></polygon>
                <path d="M57.0812099,56.0395912 C56.9744444,56.0756287 55.1106914,60.5396287 54.1892593,62.7576787 C54.0047407,63.2040787 54.4550123,63.6493162 54.898321,63.4586662 L61.6106173,60.5768287 L57.0812099,56.0395912 Z" id="Fill-27" fill="#FFFFFF"></path>
                <path d="M57.0812099,56.0395912 C56.9744444,56.0756287 55.1106914,60.5396287 54.1892593,62.7576787 C54.0047407,63.2040787 54.4550123,63.6493162 54.898321,63.4586662 L61.6106173,60.5768287 L57.0812099,56.0395912 Z" id="Stroke-29" stroke="#FF0081" stroke-linecap="round" stroke-linejoin="round"></path>
                <polygon id="Stroke-31" stroke="#FF0081" stroke-linecap="round" stroke-linejoin="round" points="61.6103852 60.5771775 57.0809778 56.03994 78.5965333 34.48719 83.1271012 39.0244275"></polygon>
                <polygon id="Fill-33" fill-opacity="0.25" fill="#FF0081" points="85.3914568 36.7555762 80.8620494 32.2183387 78.5967654 34.4863762 83.1261728 39.0247762"></polygon>
                <polygon id="Stroke-35" stroke="#FF0081" stroke-linecap="round" stroke-linejoin="round" points="85.3914568 36.7555762 80.8620494 32.2183387 78.5967654 34.4863762 83.1261728 39.0247762"></polygon>
                <path d="M87.0903037,35.0537925 C88.341316,33.8006175 88.341316,31.76973 87.0903037,30.516555 C85.8392914,29.26338 83.8107481,29.26338 82.5608963,30.516555 L80.8619333,32.218455 L85.3913407,36.7556925 L87.0903037,35.0537925 Z" id="Fill-37" fill="#FFFFFF"></path>
                <path d="M87.0903037,35.0537925 C88.341316,33.8006175 88.341316,31.76973 87.0903037,30.516555 C85.8392914,29.26338 83.8107481,29.26338 82.5608963,30.516555 L80.8619333,32.218455 L85.3913407,36.7556925 L87.0903037,35.0537925 Z" id="Stroke-39" stroke="#FF0081" stroke-linecap="round" stroke-linejoin="round"></path>
                <path d="M58.4400321,61.9383487 L55.6861802,59.1797362 C55.1558346,60.4352362 54.5860321,61.8046612 54.1891432,62.7590737 C54.0046247,63.2054737 54.4548963,63.6495487 54.8982049,63.4588987 L58.4400321,61.9383487 Z" id="Fill-41" fill-opacity="0.25" fill="#FF0081"></path>
                <path d="M58.4400321,61.9383487 L55.6861802,59.1797362 C55.1558346,60.4352362 54.5860321,61.8046612 54.1891432,62.7590737 C54.0046247,63.2054737 54.4548963,63.6495487 54.8982049,63.4588987 L58.4400321,61.9383487 Z" id="Stroke-43" stroke="#FF0081" stroke-linecap="round" stroke-linejoin="round"></path>
            </g>
        </g>
    </g>
</svg>