<?xml version="1.0" encoding="UTF-8"?>
<svg width="100px" height="100px" viewBox="0 0 100 100" version="1.1" xmlns="http://www.w3.org/2000/svg" xmlns:xlink="http://www.w3.org/1999/xlink">
    <!-- Generator: Sketch 48.2 (47327) - http://www.bohemiancoding.com/sketch -->
    <title>22- jigsaw-programming-drag-and-drop-2</title>
    <desc>Created with Sketch.</desc>
    <defs></defs>
    <g id="Page-1" stroke="none" stroke-width="1" fill="none" fill-rule="evenodd">
        <g id="22--jigsaw-programming-drag-and-drop-2">
            <g transform="translate(3.000000, 3.500000)">
                <path d="M93.2327975,46.5 C93.2327975,72.1807875 72.4495136,93 46.8130444,93 C21.1754148,93 0.393291358,72.1807875 0.393291358,46.5 C0.393291358,20.8192125 21.1754148,0 46.8130444,0 C72.4495136,0 93.2327975,20.8192125 93.2327975,46.5" id="Fill-1" fill-opacity="0.1" fill="#FF0081"></path>
                <path d="M68.6482,82.7190825 C68.6482,83.77812 59.5035086,84.6372075 48.2235086,84.6372075 C36.9423481,84.6372075 27.7988173,83.77812 27.7988173,82.7190825 C27.7988173,81.660045 36.9423481,80.8009575 48.2235086,80.8009575 C59.5035086,80.8009575 68.6482,81.660045 68.6482,82.7190825" id="Fill-3" fill-opacity="0.25" fill="#FF0081"></path>
                <path d="M37.2547531,39.6572925 C37.4938148,39.2806425 37.557642,38.81913 37.4288272,38.3924925 C37.3023333,37.9646925 36.9948025,37.6136175 36.5886296,37.431105 C36.1000617,37.212555 35.6405062,36.8789175 35.2401358,36.417405 C34.3860123,35.431605 34.0958889,34.0075425 34.5101852,32.76948 C35.3422593,30.2852175 38.1657407,29.3900925 40.2198148,30.6990675 C40.375321,30.79788 40.5203827,30.907155 40.6561605,31.023405 C40.9938642,31.3151925 41.4406543,31.446555 41.881642,31.3802925 C42.3226296,31.3151925 42.7125556,31.060605 42.9516173,30.6851175 L45.446679,26.754705 C45.9004321,26.0397675 45.6903827,25.0911675 44.976679,24.63663 L39.1451975,20.92128 C40.2174938,20.5202175 41.131963,19.6622925 41.505642,18.3486675 C41.8630741,17.0931675 41.5230494,15.6795675 40.6248272,14.734455 C38.8202593,12.837255 35.8818889,13.2243675 34.5763333,15.283155 C34.1121358,16.01553 33.9392222,16.84323 34.0042099,17.645355 L28.1727284,13.9311675 C27.4590247,13.47663 26.5120617,13.6870425 26.0583086,14.40198 L23.5632469,18.3323925 C23.3241852,18.70788 23.260358,19.170555 23.3880123,19.5971925 C23.5168272,20.0249925 23.8231975,20.3760675 24.2293704,20.55858 C24.7167778,20.77713 25.1763333,21.109605 25.5767037,21.5711175 C26.4308272,22.5569175 26.7221111,23.98098 26.3078148,25.2190425 C25.4780617,27.703305 22.6522593,28.5995925 20.5981852,27.2906175 C20.442679,27.191805 20.2964568,27.08253 20.1618395,26.96628 C19.8241358,26.6744925 19.3773457,26.54313 18.936358,26.60823 C18.4953704,26.6744925 18.1054444,26.9279175 17.8663827,27.3045675 L15.371321,31.23498 C14.9175679,31.9499175 15.1276173,32.8985175 15.841321,33.353055 L21.6728025,37.068405 C20.6005062,37.4694675 19.686037,38.3273925 19.312358,39.639855 C18.9549259,40.895355 19.2937901,42.308955 20.1931728,43.25523 C21.9977407,45.1535925 24.9349506,44.764155 26.2416667,42.70653 C26.7070247,41.9753175 26.8787778,41.146455 26.8137901,40.3431675 L32.6452716,44.0585175 C33.3589753,44.513055 34.3059383,44.3026425 34.7596914,43.5865425 L37.2547531,39.6572925 Z" id="Fill-5" fill-opacity="0.25" fill="#FF0081"></path>
                <path d="M65.3996296,47.5534575 C66.0901235,46.63857 66.4022963,45.422595 66.0135309,44.11362 C65.6421728,42.86277 64.5988889,41.8525575 63.3339506,41.53752 C60.7947901,40.9062825 58.5237037,42.8127825 58.5237037,45.2517075 C58.5237037,46.120095 58.8219506,46.910595 59.307037,47.5534575 L50.8644444,47.5534575 L50.8644444,56.010645 C51.7777531,55.3189575 52.9916296,55.006245 54.2983457,55.3956825 C55.5481975,55.7676825 56.5555062,56.8139325 56.87,58.079895 C57.5001481,60.623445 55.5957778,62.8984575 53.1622222,62.8984575 C52.2953333,62.8984575 51.5061975,62.599695 50.8644444,62.11377 L50.8644444,70.5709575 L72.3103704,70.5709575 C73.1563704,70.5709575 73.8422222,69.88392 73.8422222,69.0364575 L73.8422222,47.5534575 L65.3996296,47.5534575 Z" id="Fill-7" fill-opacity="0.1" fill="#FF0081"></path>
                <path d="M54.2984617,55.3957987 C52.9917457,55.0063612 51.7778691,55.3190737 50.8645605,56.0107613 L50.8645605,47.5535737 L44.6826099,47.5535737 C44.2381407,47.5535737 43.8145605,47.7477112 43.5232765,48.0848362 C43.2319926,48.4219612 43.1008568,48.8706862 43.1658444,49.3124362 C43.2435975,49.8413737 43.2099432,50.4075112 43.0358691,50.9922488 C42.6656716,52.2442612 41.6212272,53.2556362 40.3562889,53.5695112 C37.8171284,54.2019112 35.546042,52.2942487 35.546042,49.8553237 C35.546042,49.6704862 35.5599679,49.4891362 35.5854988,49.3124362 C35.6504864,48.8706862 35.5193506,48.4219612 35.2280667,48.0848362 C34.9367827,47.7465487 34.5132025,47.5535737 34.0675728,47.5535737 L29.4186346,47.5535737 C28.5726346,47.5535737 27.8867827,48.2406112 27.8867827,49.0880737 L27.8867827,56.0107613 C26.9734741,55.3190737 25.7595975,55.0063612 24.4528815,55.3957987 C23.2030296,55.7677987 22.1945605,56.8140487 21.8800667,58.0800112 C21.251079,60.6235612 23.1542889,62.8985737 25.5890049,62.8985737 C26.4547333,62.8985737 27.2450296,62.5998113 27.8867827,62.1138862 L27.8867827,69.0365738 C27.8867827,69.8840362 28.5726346,70.5710737 29.4186346,70.5710737 L50.8645605,70.5710737 L50.8645605,62.1138862 C51.5063136,62.5998113 52.2954494,62.8985737 53.1623383,62.8985737 C55.5958938,62.8985737 57.5002642,60.6235612 56.870116,58.0800112 C56.5556222,56.8140487 55.5471531,55.7677987 54.2984617,55.3957987" id="Fill-9" fill="#FFFFFF"></path>
                <path d="M67.6605037,24.53619 C67.2160346,24.53619 66.7924543,24.7303275 66.5011704,25.068615 C66.2098864,25.40574 66.0787506,25.8533025 66.1425778,26.29389 C66.2214914,26.82399 66.187837,27.3901275 66.013763,27.974865 C65.6424049,29.2268775 64.599121,30.23709 63.3341827,30.5521275 C60.7950222,31.183365 58.5227753,29.276865 58.5227753,26.83794 C58.5227753,26.6531025 58.5367012,26.4717525 58.5633926,26.29389 C58.6283802,25.8533025 58.4972444,25.4045775 58.207121,25.0674525 C57.9146765,24.7303275 57.4910963,24.53619 57.0454667,24.53619 L52.3965284,24.53619 C51.5505284,24.53619 50.8646765,25.2232275 50.8646765,26.07069 L50.8646765,32.9933775 C49.9513679,32.30169 48.7363309,31.9889775 47.4296148,32.378415 C46.1809235,32.750415 45.1724543,33.7955025 44.859121,35.0626275 C44.2289728,37.6061775 46.1321827,39.88119 48.5668988,39.88119 C49.4326272,39.88119 50.2229235,39.5824275 50.8646765,39.0965025 L50.8646765,47.55369 L59.3072691,47.55369 C58.6167753,46.6388025 58.3046025,45.4228275 58.6922074,44.1138525 C59.0635654,42.8630025 60.1080099,41.85279 61.3729481,41.5377525 C63.9121086,40.906515 66.1831951,42.813015 66.1831951,45.25194 C66.1831951,46.119165 65.8837877,46.9108275 65.3998617,47.55369 L73.8424543,47.55369 L73.8424543,26.07069 C73.8424543,25.2232275 73.1566025,24.53619 72.3106025,24.53619 L67.6605037,24.53619 Z" id="Fill-11" fill="#FFFFFF"></path>
                <path d="M54.2984617,55.3957987 C52.9917457,55.0063612 51.7778691,55.3190737 50.8645605,56.0107613 L50.8645605,47.5535737 L44.6826099,47.5535737 C44.2381407,47.5535737 43.8145605,47.7477112 43.5232765,48.0848362 C43.2319926,48.4219612 43.1008568,48.8706862 43.1658444,49.3124362 C43.2435975,49.8413737 43.2099432,50.4075112 43.0358691,50.9922488 C42.6656716,52.2442612 41.6212272,53.2556362 40.3562889,53.5695112 C37.8171284,54.2019112 35.546042,52.2942487 35.546042,49.8553237 C35.546042,49.6704862 35.5599679,49.4891362 35.5854988,49.3124362 C35.6504864,48.8706862 35.5193506,48.4219612 35.2280667,48.0848362 C34.9367827,47.7465487 34.5132025,47.5535737 34.0675728,47.5535737 L29.4186346,47.5535737 C28.5726346,47.5535737 27.8867827,48.2406112 27.8867827,49.0880737 L27.8867827,56.0107613 C26.9734741,55.3190737 25.7595975,55.0063612 24.4528815,55.3957987 C23.2030296,55.7677987 22.1945605,56.8140487 21.8812272,58.0800112 C21.251079,60.6235612 23.1554494,62.8985737 25.5890049,62.8985737 C26.4547333,62.8985737 27.2450296,62.5998113 27.8867827,62.1138862 L27.8867827,69.0365738 C27.8867827,69.8840362 28.5726346,70.5710737 29.4186346,70.5710737 L50.8645605,70.5710737 L50.8645605,62.1138862 C51.5063136,62.5998113 52.2954494,62.8985737 53.1623383,62.8985737 C55.5958938,62.8985737 57.5002642,60.6235612 56.870116,58.0800112 C56.5556222,56.8140487 55.5483136,55.7677987 54.2984617,55.3957987 Z" id="Stroke-13" stroke="#FF0081" stroke-linecap="round" stroke-linejoin="round"></path>
                <path d="M65.3996296,47.5534575 C66.0901235,46.63857 66.4022963,45.422595 66.0135309,44.11362 C65.6421728,42.86277 64.5988889,41.8525575 63.3339506,41.53752 C60.7947901,40.9062825 58.5237037,42.8127825 58.5237037,45.2517075 C58.5237037,46.120095 58.8219506,46.910595 59.307037,47.5534575 L50.8644444,47.5534575 L50.8644444,56.010645 C51.7777531,55.3189575 52.9916296,55.006245 54.2983457,55.3956825 C55.5481975,55.7676825 56.5555062,56.8139325 56.87,58.079895 C57.5001481,60.623445 55.5957778,62.8984575 53.1622222,62.8984575 C52.2953333,62.8984575 51.5061975,62.599695 50.8644444,62.11377 L50.8644444,70.5709575 L72.3103704,70.5709575 C73.1563704,70.5709575 73.8422222,69.88392 73.8422222,69.0364575 L73.8422222,47.5534575 L65.3996296,47.5534575 Z" id="Stroke-15" stroke="#FF0081" stroke-linecap="round" stroke-linejoin="round"></path>
                <path d="M37.2547531,39.6572925 C37.4938148,39.2806425 37.557642,38.81913 37.4288272,38.3924925 C37.3023333,37.9646925 36.9948025,37.6136175 36.5886296,37.431105 C36.1000617,37.212555 35.6405062,36.8789175 35.2401358,36.417405 C34.3860123,35.431605 34.0958889,34.0075425 34.5101852,32.76948 C35.3422593,30.2852175 38.1657407,29.3900925 40.2198148,30.6990675 C40.375321,30.79788 40.5203827,30.907155 40.6561605,31.023405 C40.9938642,31.3151925 41.4406543,31.446555 41.881642,31.3802925 C42.3226296,31.3151925 42.7125556,31.060605 42.9516173,30.6851175 L45.446679,26.754705 C45.9004321,26.0397675 45.6903827,25.0911675 44.976679,24.63663 L39.1451975,20.92128 C40.2174938,20.5202175 41.131963,19.6622925 41.505642,18.3486675 C41.8630741,17.0931675 41.5230494,15.6795675 40.6248272,14.734455 C38.8202593,12.837255 35.8818889,13.2243675 34.5763333,15.283155 C34.1121358,16.01553 33.9392222,16.84323 34.0042099,17.645355 L28.1727284,13.9311675 C27.4590247,13.47663 26.5120617,13.6870425 26.0583086,14.40198 L23.5632469,18.3323925 C23.3241852,18.70788 23.260358,19.170555 23.3880123,19.5971925 C23.5168272,20.0249925 23.8231975,20.3760675 24.2293704,20.55858 C24.7167778,20.77713 25.1763333,21.109605 25.5767037,21.5711175 C26.4308272,22.5569175 26.7221111,23.98098 26.3078148,25.2190425 C25.4780617,27.703305 22.6522593,28.5995925 20.5981852,27.2906175 C20.442679,27.191805 20.2964568,27.08253 20.1618395,26.96628 C19.8241358,26.6744925 19.3773457,26.54313 18.936358,26.60823 C18.4953704,26.6744925 18.1054444,26.9279175 17.8663827,27.3045675 L15.371321,31.23498 C14.9175679,31.9499175 15.1276173,32.8985175 15.841321,33.353055 L21.6728025,37.068405 C20.6005062,37.4694675 19.686037,38.3273925 19.312358,39.639855 C18.9549259,40.895355 19.2937901,42.308955 20.1931728,43.25523 C21.9977407,45.1535925 24.9349506,44.764155 26.2416667,42.70653 C26.7070247,41.9753175 26.8787778,41.146455 26.8137901,40.3431675 L32.6452716,44.0585175 C33.3589753,44.513055 34.3059383,44.3026425 34.7596914,43.5865425 L37.2547531,39.6572925 Z" id="Stroke-17" stroke="#FF0081" stroke-linecap="round" stroke-linejoin="round"></path>
                <path d="M67.6605037,24.53619 C67.2160346,24.53619 66.7924543,24.7303275 66.5011704,25.068615 C66.2098864,25.40574 66.0787506,25.8533025 66.1425778,26.29389 C66.2214914,26.82399 66.187837,27.3901275 66.013763,27.974865 C65.6424049,29.2268775 64.599121,30.23709 63.3341827,30.5521275 C60.7950222,31.183365 58.5227753,29.276865 58.5227753,26.83794 C58.5227753,26.6531025 58.5367012,26.4717525 58.5633926,26.29389 C58.6283802,25.8533025 58.4972444,25.4045775 58.207121,25.0674525 C57.9146765,24.7303275 57.4910963,24.53619 57.0454667,24.53619 L52.3965284,24.53619 C51.5505284,24.53619 50.8646765,25.2232275 50.8646765,26.07069 L50.8646765,32.9933775 C49.9513679,32.30169 48.7363309,31.9889775 47.4296148,32.378415 C46.1809235,32.750415 45.1724543,33.7955025 44.859121,35.0626275 C44.2289728,37.6061775 46.1321827,39.88119 48.5668988,39.88119 C49.4326272,39.88119 50.2229235,39.5824275 50.8646765,39.0965025 L50.8646765,47.55369 L59.3072691,47.55369 C58.6167753,46.6388025 58.3046025,45.4228275 58.6922074,44.1138525 C59.0635654,42.8630025 60.1080099,41.85279 61.3729481,41.5377525 C63.9121086,40.906515 66.1831951,42.813015 66.1831951,45.25194 C66.1831951,46.119165 65.8837877,46.9108275 65.3998617,47.55369 L73.8424543,47.55369 L73.8424543,26.07069 C73.8424543,25.2232275 73.1566025,24.53619 72.3106025,24.53619 L67.6605037,24.53619 Z" id="Stroke-19" stroke="#FF0081" stroke-linecap="round" stroke-linejoin="round"></path>
            </g>
        </g>
    </g>
</svg>