<?xml version="1.0" encoding="UTF-8"?>
<svg width="100px" height="100px" viewBox="0 0 100 100" version="1.1" xmlns="http://www.w3.org/2000/svg" xmlns:xlink="http://www.w3.org/1999/xlink">
    <!-- Generator: Sketch 48.2 (47327) - http://www.bohemiancoding.com/sketch -->
    <title>01- desktop-programmer-programming-flowchart</title>
    <desc>Created with Sketch.</desc>
    <defs>
        <polygon id="path-1" points="0 94 94 94 94 0 0 0"></polygon>
    </defs>
    <g id="Page-1" stroke="none" stroke-width="1" fill="none" fill-rule="evenodd">
        <g id="01--desktop-programmer-programming-flowchart">
            <g transform="translate(3.000000, 3.000000)">
                <path d="M90.4823404,45.9438202 C90.4823404,69.5679213 71.3311607,88.7191011 47.7070596,88.7191011 C24.0829584,88.7191011 4.93177865,69.5679213 4.93177865,45.9438202 C4.93177865,22.3197191 24.0829584,3.16853933 47.7070596,3.16853933 C71.3311607,3.16853933 90.4823404,22.3197191 90.4823404,45.9438202" id="Fill-1" fill-opacity="0.1" fill="#FF0081"></path>
                <path d="M65.5372753,61.5235281 C65.6645449,61.1047528 65.4279607,60.6627416 65.0091854,60.5354719 L56.782073,58.0365506 L56.7630618,56.3456067 C56.758309,55.9078202 56.399736,55.5571685 55.9624775,55.5619213 L51.5761629,55.6110337 L51.3739045,55.0000337 C51.2366011,54.5849551 50.7887809,54.3594607 50.3731742,54.496764 L46.8450056,55.6633146 L39.3287022,55.7472809 C38.8909157,55.7515056 38.540264,56.1106067 38.5455449,56.5478652 L38.5656124,58.4009326 L34.5790618,59.7190449 C34.1639831,59.8563483 33.9390169,60.3041685 34.0757921,60.7197753 L38.7483315,74.8504045 L38.8000843,79.518191 C38.8048371,79.9554494 39.1639382,80.3061011 39.6011966,80.3013483 L40.5475337,80.2913146 L41.2879157,82.5304157 C41.4252191,82.9454944 41.8730393,83.1709888 42.2886461,83.0336854 L48.1763202,81.0871461 L57.8741629,84.0323034 C58.2929382,84.1590449 58.7354775,83.9229888 58.8622191,83.5042135 L65.5372753,61.5235281 Z" id="Fill-3" fill-opacity="0.1" fill="#FF0081"></path>
                <path d="M65.3555067,54.1611629 L30.5015742,54.1611629 C28.7520124,54.1611629 27.3330348,52.7421854 27.3330348,50.9926236 L27.3330348,28.8128483 C27.3330348,27.0627584 28.7520124,25.644309 30.5015742,25.644309 L65.3555067,25.644309 C67.1055966,25.644309 68.5240461,27.0627584 68.5240461,28.8128483 L68.5240461,50.9926236 C68.5240461,52.7421854 67.1055966,54.1611629 65.3555067,54.1611629" id="Fill-5" fill-opacity="0.1" fill="#FF0081"></path>
                <path d="M27.5109483,60.580782 L21.211364,63.9183101 C20.4382404,64.3281079 19.4797573,64.0334337 19.0699596,63.2603101 L12.0231281,49.9614225 C11.6133303,49.1882989 11.9080045,48.2292876 12.6811281,47.8194899 L18.9807124,44.4819618 C19.753836,44.072164 20.7128472,44.3668382 21.1226449,45.1399618 L28.1694764,58.4388494 C28.5787461,59.211973 28.2840719,60.1709843 27.5109483,60.580782" id="Fill-7" fill-opacity="0.25" fill="#FF0081"></path>
                <path d="M69.5294236,7.82127528 L26.3358955,7.82127528 C25.2501427,7.82127528 24.2578618,8.43438764 23.7725472,9.40554494 L23.7725472,10.1976798 L72.0927719,10.1976798 L72.0927719,9.40554494 C71.6074573,8.43438764 70.6146483,7.82127528 69.5294236,7.82127528" id="Fill-9" fill="#FFFFFF"></path>
                <path d="M69.5294236,7.82127528 L26.3358955,7.82127528 C25.2501427,7.82127528 24.2578618,8.43438764 23.7725472,9.40554494 L23.7725472,10.1976798 L72.0927719,10.1976798 L72.0927719,9.40554494 C71.6074573,8.43438764 70.6146483,7.82127528 69.5294236,7.82127528 Z" id="Stroke-11" stroke="#FF0081" stroke-linecap="round" stroke-linejoin="round"></path>
                <path d="M65.5783079,25.2482416 L30.2871169,25.2482416 C29.3603191,25.2482416 28.5180157,24.7090618 28.1293416,23.8678146 L23.8338584,10.5023876 C23.6162854,9.98063483 23.9996787,9.40554494 24.5652629,9.40554494 L71.3001618,9.40554494 C71.8657461,9.40554494 72.2486112,9.98063483 72.0310382,10.5023876 L67.7360831,23.8678146 C67.3479371,24.7090618 66.5051056,25.2482416 65.5783079,25.2482416" id="Fill-13" fill-opacity="0.1" fill="#FF0081"></path>
                <path d="M38.4270416,25.2482416 L54.1783787,9.40554494 L24.564682,9.40554494 C23.9996258,9.40554494 23.6162326,9.98063483 23.8338056,10.5023876 L28.1292888,23.8678146 C28.5174348,24.7090618 29.3602663,25.2482416 30.287064,25.2482416 L38.4270416,25.2482416 Z" id="Fill-15" fill="#FFFFFF"></path>
                <path d="M65.5783079,25.2482416 L30.2871169,25.2482416 C29.3603191,25.2482416 28.5180157,24.7090618 28.1293416,23.8678146 L23.8338584,10.5023876 C23.6162854,9.98063483 23.9996787,9.40554494 24.5652629,9.40554494 L71.3001618,9.40554494 C71.8657461,9.40554494 72.2486112,9.98063483 72.0310382,10.5023876 L67.7360831,23.8678146 C67.3479371,24.7090618 66.5051056,25.2482416 65.5783079,25.2482416 Z" id="Stroke-17" stroke="#FF0081" stroke-linecap="round" stroke-linejoin="round"></path>
                <path d="M65.5783079,25.2482416 L30.2871169,25.2482416 C29.3603191,25.2482416 28.5180157,24.7090618 28.1293416,23.8678146 L23.8338584,10.5023876 C23.6162854,9.98063483 23.9996787,9.40554494 24.5652629,9.40554494 L71.3001618,9.40554494 C71.8657461,9.40554494 72.2486112,9.98063483 72.0310382,10.5023876 L67.7360831,23.8678146 C67.3479371,24.7090618 66.5051056,25.2482416 65.5783079,25.2482416 Z" id="Stroke-19" stroke="#FF0081" stroke-linecap="round" stroke-linejoin="round"></path>
                <path d="M30.1096258,51.388691 C28.7973225,51.388691 27.7332213,50.3245899 27.7332213,49.0122865 L27.7332213,26.8325112 C27.7332213,25.5202079 28.7973225,24.4561067 30.1096258,24.4561067 L65.7556933,24.4561067 C67.0679966,24.4561067 68.1320978,25.5202079 68.1320978,26.8325112 L68.1320978,49.0122865 C68.1320978,50.3245899 67.0679966,51.388691 65.7556933,51.388691 L30.1096258,51.388691 Z" id="Fill-21" fill="#FFFFFF"></path>
                <path d="M65.7556933,51.388691 L30.1096258,51.388691 C28.7973225,51.388691 27.7332213,50.3245899 27.7332213,49.0122865 L27.7332213,26.8325112 C27.7332213,25.5202079 28.7973225,24.4561067 30.1096258,24.4561067 L65.7556933,24.4561067 C67.0679966,24.4561067 68.1320978,25.5202079 68.1320978,26.8325112 L68.1320978,49.0122865 C68.1320978,50.3245899 67.0679966,51.388691 65.7556933,51.388691 Z" id="Stroke-23" stroke="#FF0081" stroke-linecap="round" stroke-linejoin="round"></path>
                <mask id="mask-2" fill="white">
                    <use xlink:href="#path-1"></use>
                </mask>
                <g id="Clip-26"></g>
                <polygon id="Stroke-25" stroke="#FF0081" stroke-linecap="round" stroke-linejoin="round" mask="url(#mask-2)" points="32.4859775 27.6249101 63.379236 27.6249101 63.379236 24.4563708 32.4859775 24.4563708"></polygon>
                <polygon id="Fill-27" fill="#D6DAFF" mask="url(#mask-2)" points="32.4859775 26.0406404 63.379236 26.0406404 63.379236 24.4563708 32.4859775 24.4563708"></polygon>
                <polygon id="Stroke-28" stroke="#FF0081" stroke-linecap="round" stroke-linejoin="round" mask="url(#mask-2)" points="32.4859775 26.0406404 63.379236 26.0406404 63.379236 24.4563708 32.4859775 24.4563708"></polygon>
                <path d="M51.4972663,49.0122865 L44.3680528,49.0122865 C43.9302663,49.0122865 43.575918,48.6574101 43.575918,48.2201517 L43.575918,43.4673427 C43.575918,43.0295562 43.9302663,42.6752079 44.3680528,42.6752079 L51.4972663,42.6752079 C51.9350528,42.6752079 52.2894011,43.0295562 52.2894011,43.4673427 L52.2894011,48.2201517 C52.2894011,48.6574101 51.9350528,49.0122865 51.4972663,49.0122865" id="Fill-29" fill-opacity="0.25" fill="#FF0081" mask="url(#mask-2)"></path>
                <path d="M51.4972663,49.0122865 L44.3680528,49.0122865 C43.9302663,49.0122865 43.575918,48.6574101 43.575918,48.2201517 L43.575918,43.4673427 C43.575918,43.0295562 43.9302663,42.6752079 44.3680528,42.6752079 L51.4972663,42.6752079 C51.9350528,42.6752079 52.2894011,43.0295562 52.2894011,43.4673427 L52.2894011,48.2201517 C52.2894011,48.6574101 51.9350528,49.0122865 51.4972663,49.0122865 Z" id="Stroke-30" stroke="#FF0081" stroke-linecap="round" stroke-linejoin="round" mask="url(#mask-2)"></path>
                <path d="M62.5871539,27.2089157 L33.2781652,27.2089157 C32.8403787,27.2089157 32.4860303,27.563264 32.4860303,28.0010506 L32.4860303,38.2988034 C32.4860303,38.7360618 32.8403787,39.0909382 33.2781652,39.0909382 L62.5871539,39.0909382 C63.0249404,39.0909382 63.3792888,38.7360618 63.3792888,38.2988034 L63.3792888,28.0010506 C63.3792888,27.563264 63.0249404,27.2089157 62.5871539,27.2089157" id="Fill-31" fill-opacity="0.25" fill="#FF0081" mask="url(#mask-2)"></path>
                <path d="M62.5871539,28.2089157 L33.2781652,28.2089157 C32.8403787,28.2089157 32.4860303,28.563264 32.4860303,29.0010506 L32.4860303,39.2988034 C32.4860303,39.7360618 32.8403787,40.0909382 33.2781652,40.0909382 L62.5871539,40.0909382 C63.0249404,40.0909382 63.3792888,39.7360618 63.3792888,39.2988034 L63.3792888,29.0010506 C63.3792888,28.563264 63.0249404,28.2089157 62.5871539,28.2089157 Z" id="Stroke-32" stroke="#FF0081" stroke-linecap="round" stroke-linejoin="round" mask="url(#mask-2)"></path>
                <path d="M34.8624348,38.7145337 L37.2388393,38.7145337" id="Stroke-33" stroke="#FF0081" stroke-linecap="round" stroke-linejoin="round" mask="url(#mask-2)"></path>
                <path d="M34.8624348,36.3381292 L37.2388393,36.3381292" id="Stroke-34" stroke="#FF0081" stroke-linecap="round" stroke-linejoin="round" mask="url(#mask-2)"></path>
                <path d="M34.8624348,33.9617247 L37.2388393,33.9617247" id="Stroke-35" stroke="#FF0081" stroke-linecap="round" stroke-linejoin="round" mask="url(#mask-2)"></path>
                <path d="M34.8624348,31.5853202 L37.2388393,31.5853202" id="Stroke-36" stroke="#FF0081" stroke-linecap="round" stroke-linejoin="round" mask="url(#mask-2)"></path>
                <path d="M38.823109,36.3381292 L41.1995135,36.3381292" id="Stroke-37" stroke="#FF0081" stroke-linecap="round" stroke-linejoin="round" mask="url(#mask-2)"></path>
                <path d="M38.823109,33.9617247 L41.1995135,33.9617247" id="Stroke-38" stroke="#FF0081" stroke-linecap="round" stroke-linejoin="round" mask="url(#mask-2)"></path>
                <path d="M38.823109,31.5853202 L41.1995135,31.5853202" id="Stroke-39" stroke="#FF0081" stroke-linecap="round" stroke-linejoin="round" mask="url(#mask-2)"></path>
                <path d="M42.7837831,36.3381292 L45.1601876,36.3381292" id="Stroke-40" stroke="#FF0081" stroke-linecap="round" stroke-linejoin="round" mask="url(#mask-2)"></path>
                <path d="M42.7837831,33.9617247 L45.1601876,33.9617247" id="Stroke-41" stroke="#FF0081" stroke-linecap="round" stroke-linejoin="round" mask="url(#mask-2)"></path>
                <path d="M42.7837831,31.5853202 L45.1601876,31.5853202" id="Stroke-42" stroke="#FF0081" stroke-linecap="round" stroke-linejoin="round" mask="url(#mask-2)"></path>
                <path d="M46.7444573,36.3381292 L49.1208618,36.3381292" id="Stroke-43" stroke="#FF0081" stroke-linecap="round" stroke-linejoin="round" mask="url(#mask-2)"></path>
                <path d="M46.7444573,33.9617247 L49.1208618,33.9617247" id="Stroke-44" stroke="#FF0081" stroke-linecap="round" stroke-linejoin="round" mask="url(#mask-2)"></path>
                <path d="M46.7444573,31.5853202 L49.1208618,31.5853202" id="Stroke-45" stroke="#FF0081" stroke-linecap="round" stroke-linejoin="round" mask="url(#mask-2)"></path>
                <path d="M50.7051315,36.3381292 L53.081536,36.3381292" id="Stroke-46" stroke="#FF0081" stroke-linecap="round" stroke-linejoin="round" mask="url(#mask-2)"></path>
                <path d="M50.7051315,33.9617247 L53.081536,33.9617247" id="Stroke-47" stroke="#FF0081" stroke-linecap="round" stroke-linejoin="round" mask="url(#mask-2)"></path>
                <path d="M50.7051315,31.5853202 L53.081536,31.5853202" id="Stroke-48" stroke="#FF0081" stroke-linecap="round" stroke-linejoin="round" mask="url(#mask-2)"></path>
                <path d="M54.6658056,36.3381292 L57.0422101,36.3381292" id="Stroke-49" stroke="#FF0081" stroke-linecap="round" stroke-linejoin="round" mask="url(#mask-2)"></path>
                <path d="M54.6658056,33.9617247 L57.0422101,33.9617247" id="Stroke-50" stroke="#FF0081" stroke-linecap="round" stroke-linejoin="round" mask="url(#mask-2)"></path>
                <path d="M54.6658056,31.5853202 L57.0422101,31.5853202" id="Stroke-51" stroke="#FF0081" stroke-linecap="round" stroke-linejoin="round" mask="url(#mask-2)"></path>
                <path d="M58.6264798,36.3381292 L61.0028843,36.3381292" id="Stroke-52" stroke="#FF0081" stroke-linecap="round" stroke-linejoin="round" mask="url(#mask-2)"></path>
                <path d="M58.6264798,33.9617247 L61.0028843,33.9617247" id="Stroke-53" stroke="#FF0081" stroke-linecap="round" stroke-linejoin="round" mask="url(#mask-2)"></path>
                <path d="M58.6264798,31.5853202 L61.0028843,31.5853202" id="Stroke-54" stroke="#FF0081" stroke-linecap="round" stroke-linejoin="round" mask="url(#mask-2)"></path>
                <path d="M38.823109,38.7145337 L41.1995135,38.7145337" id="Stroke-55" stroke="#FF0081" stroke-linecap="round" stroke-linejoin="round" mask="url(#mask-2)"></path>
                <path d="M42.7837831,38.7145337 L53.081536,38.7145337" id="Stroke-56" stroke="#FF0081" stroke-linecap="round" stroke-linejoin="round" mask="url(#mask-2)"></path>
                <path d="M54.6658056,38.7145337 L57.0422101,38.7145337" id="Stroke-57" stroke="#FF0081" stroke-linecap="round" stroke-linejoin="round" mask="url(#mask-2)"></path>
                <path d="M58.6264798,38.7145337 L61.0028843,38.7145337" id="Stroke-58" stroke="#FF0081" stroke-linecap="round" stroke-linejoin="round" mask="url(#mask-2)"></path>
                <polygon id="Fill-59" fill="#FFFFFF" mask="url(#mask-2)" points="68.1318337 12.5740843 27.7329573 12.5740843 30.9014966 22.0797022 64.9632944 22.0797022"></polygon>
                <polygon id="Stroke-60" stroke="#FF0081" stroke-linecap="round" stroke-linejoin="round" mask="url(#mask-2)" points="68.1318337 12.5740843 27.7329573 12.5740843 30.9014966 22.0797022 64.9632944 22.0797022"></polygon>
                <path d="M30.9014966,14.9504888 L34.070036,14.9504888" id="Stroke-61" stroke="#FF0081" stroke-linecap="round" stroke-linejoin="round" mask="url(#mask-2)"></path>
                <path d="M33.2779011,16.5347584 L37.2385753,16.5347584" id="Stroke-62" stroke="#FF0081" stroke-linecap="round" stroke-linejoin="round" mask="url(#mask-2)"></path>
                <path d="M34.8621708,18.1190281 L38.8228449,18.1190281" id="Stroke-63" stroke="#FF0081" stroke-linecap="round" stroke-linejoin="round" mask="url(#mask-2)"></path>
                <path d="M34.070036,19.7032978 L37.2385753,19.7032978" id="Stroke-64" stroke="#FF0081" stroke-linecap="round" stroke-linejoin="round" mask="url(#mask-2)"></path>
                <path d="M59.814418,12.5740843 L58.6262157,22.0797022" id="Stroke-65" stroke="#FF0081" stroke-linecap="round" stroke-linejoin="round" mask="url(#mask-2)"></path>
                <path d="M38.8228449,16.5347584 L39.6149798,16.5347584" id="Stroke-66" stroke="#FF0081" stroke-linecap="round" stroke-linejoin="round" mask="url(#mask-2)"></path>
                <path d="M35.6543056,14.9504888 L36.4464404,14.9504888" id="Stroke-67" stroke="#FF0081" stroke-linecap="round" stroke-linejoin="round" mask="url(#mask-2)"></path>
                <path d="M40.4071146,18.1190281 L42.7835191,18.1190281" id="Stroke-68" stroke="#FF0081" stroke-linecap="round" stroke-linejoin="round" mask="url(#mask-2)"></path>
                <path d="M82.8910483,52.5815404 C82.8910483,55.6439337 80.4084978,58.1264843 77.3461045,58.1264843 C74.2837112,58.1264843 71.8011607,55.6439337 71.8011607,52.5815404 C71.8011607,49.5191472 74.2837112,47.0365966 77.3461045,47.0365966 C80.4084978,47.0365966 82.8910483,49.5191472 82.8910483,52.5815404" id="Fill-69" fill-opacity="0.25" fill="#FF0081" mask="url(#mask-2)"></path>
                <path d="M69.1081135,63.062382 L67.8718551,67.3948315 C67.3258101,69.3091573 68.4347989,71.3032247 70.3491247,71.8497978 C72.2634506,72.3958427 74.257518,71.2868539 74.804091,69.3725281 L76.0398213,65.0400787 C76.5858663,63.1262809 75.4774056,61.1316854 73.5630798,60.5856404 C71.6487539,60.0390674 69.6541584,61.1480562 69.1081135,63.062382" id="Fill-70" fill-opacity="0.25" fill="#FF0081" mask="url(#mask-2)"></path>
                <path d="M81.5470596,56.0863674 C82.0112506,56.5500303 82.7632506,56.5500303 83.2274416,56.0863674 C83.6916326,55.6227045 83.6916326,54.8701764 83.2274416,54.4059854 L81.2671719,52.4451876 L79.5867899,54.1260978 L81.5470596,56.0863674 Z" id="Fill-71" fill="#FFFFFF" mask="url(#mask-2)"></path>
                <path d="M81.5470596,56.0863674 C82.0112506,56.5500303 82.7632506,56.5500303 83.2274416,56.0863674 C83.6916326,55.6227045 83.6916326,54.8701764 83.2274416,54.4059854 L81.2671719,52.4451876 L79.5867899,54.1260978 L81.5470596,56.0863674 Z" id="Stroke-72" stroke="#FF0081" stroke-linecap="round" stroke-linejoin="round" mask="url(#mask-2)"></path>
                <path d="M80.9870202,53.8458404 C78.9760539,55.8568067 75.7161551,55.8568067 73.7051888,53.8458404 C71.6947506,51.8348742 71.6947506,48.5749753 73.7051888,46.564009 C75.7161551,44.5535708 78.9760539,44.5535708 80.9870202,46.564009 C82.9979865,48.5749753 82.9979865,51.8348742 80.9870202,53.8458404" id="Fill-73" fill="#FFFFFF" mask="url(#mask-2)"></path>
                <path d="M80.9107112,50.205136 C80.9107112,52.1738551 79.3148236,53.7697427 77.3461045,53.7697427 C75.3773854,53.7697427 73.7814978,52.1738551 73.7814978,50.205136 C73.7814978,48.2364169 75.3773854,46.6405292 77.3461045,46.6405292 C79.3148236,46.6405292 80.9107112,48.2364169 80.9107112,50.205136" id="Fill-74" fill-opacity="0.1" fill="#FF0081" mask="url(#mask-2)"></path>
                <path d="M80.9870202,53.8458404 C78.9760539,55.8568067 75.7161551,55.8568067 73.7051888,53.8458404 C71.6947506,51.8348742 71.6947506,48.5749753 73.7051888,46.564009 C75.7161551,44.5535708 78.9760539,44.5535708 80.9870202,46.564009 C82.9979865,48.5749753 82.9979865,51.8348742 80.9870202,53.8458404 Z" id="Stroke-75" stroke="#FF0081" stroke-linecap="round" stroke-linejoin="round" mask="url(#mask-2)"></path>
                <path d="M80.9107112,50.205136 C80.9107112,52.1738551 79.3148236,53.7697427 77.3461045,53.7697427 C75.3773854,53.7697427 73.7814978,52.1738551 73.7814978,50.205136 C73.7814978,48.2364169 75.3773854,46.6405292 77.3461045,46.6405292 C79.3148236,46.6405292 80.9107112,48.2364169 80.9107112,50.205136 Z" id="Stroke-76" stroke="#FF0081" stroke-linecap="round" stroke-linejoin="round" mask="url(#mask-2)"></path>
                <path d="M69.1194146,62.0291742 L68.0326056,65.8377584 C67.5525719,67.5207809 68.5274258,69.2740393 70.2104483,69.754073 C71.8929427,70.2346348 73.6467292,69.2592528 74.1267629,67.5762303 L75.2135719,63.7676461 C75.6936056,62.0851517 74.7187517,60.3318933 73.0357292,59.8513315 C71.3527067,59.3712978 69.5994483,60.3461517 69.1194146,62.0291742" id="Fill-77" fill="#FFFFFF" mask="url(#mask-2)"></path>
                <path d="M72.2748045,61.7254169 C71.9299618,61.7254169 71.6125798,61.9524955 71.5132989,62.3005067 C71.3934225,62.7208663 71.6368719,63.1591809 72.0577596,63.2795854 C72.130636,63.3001809 72.2035124,63.3096865 72.2753326,63.3096865 C72.6201753,63.3096865 72.9375573,63.083136 73.0368382,62.7351247 C73.1567146,62.3142371 72.9132652,61.8759225 72.4923775,61.7560461 C72.4195011,61.7354506 72.3466247,61.7254169 72.2748045,61.7254169 M72.2748045,62.2535067 C72.2990966,62.2535067 72.3233888,62.2566753 72.3476809,62.2640685 C72.4390404,62.2899449 72.4860404,62.3533157 72.5055798,62.3892258 C72.5256472,62.425136 72.5552202,62.4985404 72.5288157,62.5904281 C72.4966022,62.7034393 72.3925685,62.7815966 72.2753326,62.7815966 C72.2510404,62.7815966 72.2267483,62.7784281 72.2024562,62.7715629 C72.0625124,62.7319562 71.9811865,62.5851472 72.0213213,62.4452034 C72.0535348,62.3321921 72.1575685,62.2535067 72.2748045,62.2535067" id="Fill-78" fill="#FF0081" mask="url(#mask-2)"></path>
                <path d="M69.1194146,62.0291742 L68.0326056,65.8377584 C67.5525719,67.5207809 68.5274258,69.2740393 70.2104483,69.754073 C71.8929427,70.2346348 73.6467292,69.2592528 74.1267629,67.5762303 L75.2135719,63.7676461 C75.6936056,62.0851517 74.7187517,60.3318933 73.0357292,59.8513315 C71.3527067,59.3712978 69.5994483,60.3461517 69.1194146,62.0291742 Z" id="Stroke-79" stroke="#FF0081" stroke-linecap="round" stroke-linejoin="round" mask="url(#mask-2)"></path>
                <path d="M58.1334551,81.820927 C58.0061854,82.2391742 57.5641742,82.4762865 57.1453989,82.3490169 L41.9844663,77.7519944 C41.565691,77.6252528 41.3291067,77.1827135 41.4563764,76.7639382 L47.8916798,55.5384213 C48.0189494,55.1201742 48.4614888,54.8835899 48.879736,55.0103315 L64.0411966,59.6073539 C64.4594438,59.7340955 64.6960281,60.1766348 64.5692865,60.5954101 L58.1334551,81.820927 Z" id="Fill-80" fill="#FFFFFF" mask="url(#mask-2)"></path>
                <path d="M58.1334551,81.820927 C58.0061854,82.2391742 57.5641742,82.4762865 57.1453989,82.3490169 L41.9844663,77.7519944 C41.565691,77.6252528 41.3291067,77.1827135 41.4563764,76.7639382 L47.8916798,55.5384213 C48.0189494,55.1201742 48.4614888,54.8835899 48.879736,55.0103315 L64.0411966,59.6073539 C64.4594438,59.7340955 64.6960281,60.1766348 64.5692865,60.5954101 L58.1334551,81.820927 Z" id="Stroke-81" stroke="#FF0081" stroke-linecap="round" stroke-linejoin="round" mask="url(#mask-2)"></path>
                <path d="M49.7064607,57.7443584 L52.7387528,58.6637629" id="Stroke-82" stroke="#4550E6" stroke-linecap="round" stroke-linejoin="round" mask="url(#mask-2)"></path>
                <path d="M49.0169337,60.0184191 L55.839327,62.0869472" id="Stroke-83" stroke="#4550E6" stroke-linecap="round" stroke-linejoin="round" mask="url(#mask-2)"></path>
                <path d="M48.3271955,62.292691 L52.8756337,63.6715337" id="Stroke-84" stroke="#4550E6" stroke-linecap="round" stroke-linejoin="round" mask="url(#mask-2)"></path>
                <path d="M47.6376685,64.5669629 L52.9439157,66.1755247" id="Stroke-85" stroke="#4550E6" stroke-linecap="round" stroke-linejoin="round" mask="url(#mask-2)"></path>
                <path d="M46.9481944,66.8410236 L49.2226775,67.530709" id="Stroke-86" stroke="#FF0081" stroke-linecap="round" stroke-linejoin="round" mask="url(#mask-2)"></path>
                <path d="M46.2586674,69.1152955 L54.5972067,71.6437899" id="Stroke-87" stroke="#FF0081" stroke-linecap="round" stroke-linejoin="round" mask="url(#mask-2)"></path>
                <path d="M45.5691404,71.3893562 L50.8753876,72.997918" id="Stroke-88" stroke="#FF0081" stroke-linecap="round" stroke-linejoin="round" mask="url(#mask-2)"></path>
                <path d="M44.8796663,73.663364 L54.7343517,76.6512966" id="Stroke-89" stroke="#FF0081" stroke-linecap="round" stroke-linejoin="round" mask="url(#mask-2)"></path>
                <path d="M44.1901393,75.9376888 L48.7385775,77.3165315" id="Stroke-90" stroke="#FF0081" stroke-linecap="round" stroke-linejoin="round" mask="url(#mask-2)"></path>
                <path d="M54.2547933,59.1233596 L58.0448944,60.2724831" id="Stroke-91" stroke="#FF0081" stroke-linecap="round" stroke-linejoin="round" mask="url(#mask-2)"></path>
                <path d="M50.7384011,67.9903056 L54.5290303,69.1394292" id="Stroke-92" stroke="#FF0081" stroke-linecap="round" stroke-linejoin="round" mask="url(#mask-2)"></path>
                <path d="M50.2544067,77.7764449 L54.045036,78.9255685" id="Stroke-93" stroke="#FF0081" stroke-linecap="round" stroke-linejoin="round" mask="url(#mask-2)"></path>
                <path d="M57.9921382,75.6746472 C58.1236326,76.0918382 57.8918011,76.537018 57.4746101,76.6679843 L42.3643742,81.4302989 C41.9471831,81.5617933 41.5025315,81.3299618 41.3710371,80.9127708 L34.7039022,59.7585461 C34.5724079,59.3413551 34.8042393,58.8967034 35.2214303,58.765209 L50.3316663,54.0028944 C50.7488573,53.8714 51.193509,54.1032315 51.3250034,54.5204225 L57.9921382,75.6746472 Z" id="Fill-94" fill="#FFFFFF" mask="url(#mask-2)"></path>
                <path d="M57.9921382,75.6746472 C58.1236326,76.0918382 57.8918011,76.537018 57.4746101,76.6679843 L42.3643742,81.4302989 C41.9471831,81.5617933 41.5025315,81.3299618 41.3710371,80.9127708 L34.7039022,59.7585461 C34.5724079,59.3413551 34.8042393,58.8967034 35.2214303,58.765209 L50.3316663,54.0028944 C50.7488573,53.8714 51.193509,54.1032315 51.3250034,54.5204225 L57.9921382,75.6746472 Z" id="Stroke-95" stroke="#FF0081" stroke-linecap="round" stroke-linejoin="round" mask="url(#mask-2)"></path>
                <path d="M37.4469596,60.5552753 L40.469218,59.6031292" id="Stroke-96" stroke="#FF0081" stroke-linecap="round" stroke-linejoin="round" mask="url(#mask-2)"></path>
                <path d="M38.1612011,62.8220483 L44.9603584,60.6790596" id="Stroke-97" stroke="#FF0081" stroke-linecap="round" stroke-linejoin="round" mask="url(#mask-2)"></path>
                <path d="M38.8754427,65.0883461 L43.4085663,63.6598629" id="Stroke-98" stroke="#FF0081" stroke-linecap="round" stroke-linejoin="round" mask="url(#mask-2)"></path>
                <path d="M39.5897371,67.3549079 L44.8785573,65.6882562" id="Stroke-99" stroke="#FF0081" stroke-linecap="round" stroke-linejoin="round" mask="url(#mask-2)"></path>
                <path d="M40.3039787,69.6214697 L42.5705404,68.906964" id="Stroke-100" stroke="#FF0081" stroke-linecap="round" stroke-linejoin="round" mask="url(#mask-2)"></path>
                <path d="M41.018273,71.8880315 L49.3288236,69.2687056" id="Stroke-101" stroke="#FF0081" stroke-linecap="round" stroke-linejoin="round" mask="url(#mask-2)"></path>
                <path d="M41.7327787,74.1545933 L47.0210708,72.4879416" id="Stroke-102" stroke="#FF0081" stroke-linecap="round" stroke-linejoin="round" mask="url(#mask-2)"></path>
                <path d="M42.4470202,76.420891 L52.268436,73.3257562" id="Stroke-103" stroke="#FF0081" stroke-linecap="round" stroke-linejoin="round" mask="url(#mask-2)"></path>
                <path d="M43.1613146,78.6874528 L47.6944382,77.2589697" id="Stroke-104" stroke="#FF0081" stroke-linecap="round" stroke-linejoin="round" mask="url(#mask-2)"></path>
                <path d="M41.9798191,59.1267393 L45.7572461,57.9364247" id="Stroke-105" stroke="#FF0081" stroke-linecap="round" stroke-linejoin="round" mask="url(#mask-2)"></path>
                <path d="M44.081564,68.4309438 L47.858991,67.2406292" id="Stroke-106" stroke="#FF0081" stroke-linecap="round" stroke-linejoin="round" mask="url(#mask-2)"></path>
                <path d="M49.2051978,76.7826854 L52.9826247,75.5923708" id="Stroke-107" stroke="#FF0081" stroke-linecap="round" stroke-linejoin="round" mask="url(#mask-2)"></path>
                <path d="M57.0419461,78.3212753 C57.0419461,78.7585337 56.6875978,79.1134101 56.2498112,79.1134101 L40.4071146,79.1134101 C39.9693281,79.1134101 39.6149798,78.7585337 39.6149798,78.3212753 L39.6149798,56.1415 C39.6149798,55.7037135 39.9693281,55.3493652 40.4071146,55.3493652 L56.2498112,55.3493652 C56.6875978,55.3493652 57.0419461,55.7037135 57.0419461,56.1415 L57.0419461,78.3212753 Z" id="Fill-108" fill="#FFFFFF" mask="url(#mask-2)"></path>
                <path d="M57.0419461,78.3212753 C57.0419461,78.7585337 56.6875978,79.1134101 56.2498112,79.1134101 L40.4071146,79.1134101 C39.9693281,79.1134101 39.6149798,78.7585337 39.6149798,78.3212753 L39.6149798,56.1415 C39.6149798,55.7037135 39.9693281,55.3493652 40.4071146,55.3493652 L56.2498112,55.3493652 C56.6875978,55.3493652 57.0419461,55.7037135 57.0419461,56.1415 L57.0419461,78.3212753 Z" id="Stroke-109" stroke="#FF0081" stroke-linecap="round" stroke-linejoin="round" mask="url(#mask-2)"></path>
                <path d="M46.7403382,59.3121517 C46.7403382,60.1871966 45.6767652,60.8964213 44.3639337,60.8964213 C43.0516303,60.8964213 41.9875292,60.1871966 41.9875292,59.3121517 C41.9875292,58.4371067 43.0516303,57.727882 44.3639337,57.727882 C45.6767652,57.727882 46.7403382,58.4371067 46.7403382,59.3121517 Z" id="Stroke-110" stroke="#FF0081" stroke-linecap="round" stroke-linejoin="round" mask="url(#mask-2)"></path>
                <path d="M46.7403382,75.1548483 C46.7403382,76.0298933 45.6767652,76.739118 44.3639337,76.739118 C43.0516303,76.739118 41.9875292,76.0298933 41.9875292,75.1548483 C41.9875292,74.2798034 43.0516303,73.5705787 44.3639337,73.5705787 C45.6767652,73.5705787 46.7403382,74.2798034 46.7403382,75.1548483 Z" id="Stroke-111" stroke="#FF0081" stroke-linecap="round" stroke-linejoin="round" mask="url(#mask-2)"></path>
                <path d="M44.3639337,60.8964213 L44.3639337,62.480691" id="Stroke-112" stroke="#FF0081" stroke-linecap="round" stroke-linejoin="round" mask="url(#mask-2)"></path>
                <polygon id="Stroke-113" stroke="#FF0081" stroke-linecap="round" stroke-linejoin="round" mask="url(#mask-2)" points="42.7795056 64.0646966 45.9480449 64.0646966 45.9480449 62.480427 42.7795056 62.480427"></polygon>
                <polygon id="Stroke-114" stroke="#FF0081" stroke-linecap="round" stroke-linejoin="round" mask="url(#mask-2)" points="51.4929888 64.0646966 54.6615281 64.0646966 54.6615281 62.480427 51.4929888 62.480427"></polygon>
                <path d="M44.3639337,64.0649607 L44.3639337,65.6492303" id="Stroke-115" stroke="#FF0081" stroke-linecap="round" stroke-linejoin="round" mask="url(#mask-2)"></path>
                <polygon id="Stroke-116" stroke="#FF0081" stroke-linecap="round" stroke-linejoin="round" mask="url(#mask-2)" points="44.3639337 68.8177697 42.779664 67.2335 44.3639337 65.6492303 45.9482034 67.2335"></polygon>
                <polygon id="Stroke-117" stroke="#FF0081" stroke-linecap="round" stroke-linejoin="round" mask="url(#mask-2)" points="53.0774169 72.7784438 51.4931472 71.1941742 53.0774169 69.6099045 54.6616865 71.1941742"></polygon>
                <path d="M44.3639337,68.8177697 L44.3639337,70.4020393" id="Stroke-118" stroke="#FF0081" stroke-linecap="round" stroke-linejoin="round" mask="url(#mask-2)"></path>
                <polygon id="Stroke-119" stroke="#FF0081" stroke-linecap="round" stroke-linejoin="round" mask="url(#mask-2)" points="54.6616865 68.0256348 50.7010124 68.0256348 51.4931472 66.4413652 55.4538213 66.4413652"></polygon>
                <path d="M53.0774169,68.0256348 L53.0774169,69.6099045" id="Stroke-120" stroke="#FF0081" stroke-linecap="round" stroke-linejoin="round" mask="url(#mask-2)"></path>
                <path d="M53.0774169,64.0649607 L53.0774169,66.4413652" id="Stroke-121" stroke="#FF0081" stroke-linecap="round" stroke-linejoin="round" mask="url(#mask-2)"></path>
                <path d="M51.4931472,71.1941742 L46.7403382,71.1941742" id="Stroke-122" stroke="#FF0081" stroke-linecap="round" stroke-linejoin="round" mask="url(#mask-2)"></path>
                <polygon id="Stroke-123" stroke="#FF0081" stroke-linecap="round" stroke-linejoin="round" mask="url(#mask-2)" points="41.9873708 71.9860449 46.7401798 71.9860449 46.7401798 70.4017753 41.9873708 70.4017753"></polygon>
                <path d="M44.3639337,71.986309 L44.3639337,73.5705787" id="Stroke-124" stroke="#FF0081" stroke-linecap="round" stroke-linejoin="round" mask="url(#mask-2)"></path>
                <polyline id="Stroke-125" stroke="#FF0081" stroke-linecap="round" stroke-linejoin="round" mask="url(#mask-2)" points="51.4931472 63.2728258 49.1167427 63.2728258 49.1167427 67.2335 45.9482034 67.2335"></polyline>
                <path d="M27.7502258,58.2128798 L21.2172258,61.674509 C20.7018101,61.9475315 20.0622933,61.751082 19.7892708,61.2356663 L12.6193944,47.7033629 C12.3463719,47.1879472 12.5428213,46.5484303 13.0582371,46.2754079 L19.5912371,42.8137787 C20.1066528,42.5407562 20.7456416,42.7372056 21.018664,43.2526213 L28.1890685,56.7849247 C28.462091,57.3003404 28.2656416,57.9398573 27.7502258,58.2128798" id="Fill-126" fill="#FFFFFF" mask="url(#mask-2)"></path>
                <path d="M27.7502258,58.2128798 L21.2172258,61.674509 C20.7018101,61.9475315 20.0622933,61.751082 19.7892708,61.2356663 L12.6193944,47.7033629 C12.3463719,47.1879472 12.5428213,46.5484303 13.0582371,46.2754079 L19.5912371,42.8137787 C20.1066528,42.5407562 20.7456416,42.7372056 21.018664,43.2526213 L28.1890685,56.7849247 C28.462091,57.3003404 28.2656416,57.9398573 27.7502258,58.2128798 Z" id="Stroke-127" stroke="#FF0081" stroke-linecap="round" stroke-linejoin="round" mask="url(#mask-2)"></path>
                <polygon id="Fill-128" fill-opacity="0.1" fill="#FF0081" mask="url(#mask-2)" points="26.8291843 54.2186719 18.4299146 58.6688854 13.6084539 49.5693685 22.0077236 45.1191551"></polygon>
                <polygon id="Fill-129" fill="#FFFFFF" mask="url(#mask-2)" points="20.6078629 45.8608045 13.6085596 49.5695798 17.3173348 56.5688831"></polygon>
                <polygon id="Stroke-130" stroke="#FF0081" stroke-linecap="round" stroke-linejoin="round" mask="url(#mask-2)" points="26.8291843 54.2186719 18.4299146 58.6688854 13.6084539 49.5693685 22.0077236 45.1191551"></polygon>
                <path d="M16.3664034,46.3153843 L17.7663697,45.573418" id="Stroke-131" stroke="#FF0081" stroke-linecap="round" stroke-linejoin="round" mask="url(#mask-2)"></path>
                <path d="M23.9066292,58.0081393 C24.0090787,58.2014202 23.9351461,58.441173 23.7418652,58.5436225 C23.5485843,58.6460719 23.3088315,58.5721393 23.206382,58.3788584 C23.1039326,58.1855775 23.1778652,57.9458247 23.3711461,57.8433753 C23.564427,57.7414539 23.8041798,57.8148584 23.9066292,58.0081393 Z" id="Stroke-132" stroke="#FF0081" stroke-linecap="round" stroke-linejoin="round" mask="url(#mask-2)"></path>
            </g>
        </g>
    </g>
</svg>