<?xml version="1.0" encoding="UTF-8"?>
<svg width="192px" height="63px" viewBox="0 0 192 63" version="1.1" xmlns="http://www.w3.org/2000/svg" xmlns:xlink="http://www.w3.org/1999/xlink">
    <!-- Generator: Sketch 49.3 (51167) - http://www.bohemiancoding.com/sketch -->
    <title>Untitled 2</title>
    <desc>Created with Sketch.</desc>
    <defs></defs>
    <g id="Page-1" stroke="none" stroke-width="1" fill="none" fill-rule="evenodd">
        <g id="logo" fill="#000A38" fill-rule="nonzero">
            <g id="Type" transform="translate(107.000000, 31.000000)">
                <path d="M3.63,8.27 C3.88023202,9.02793922 4.62662919,9.50746812 5.42,9.42 C6.3,9.42 6.91,9.04 6.91,8.34 C6.91,7.81 6.57,7.57 5.91,7.4 L3.74,7 C2.12,6.63 0.9,5.77 0.9,3.86 C0.9,1.65 2.7,0.2 5.15,0.2 C7.85,0.2 9.38,1.71 9.68,3.65 L6.86,3.65 C6.6084535,2.94016532 5.91058044,2.4886004 5.16,2.55 C4.34,2.55 3.78,2.92 3.78,3.55 C3.78,4.18 4.12,4.33 4.7,4.45 L6.86,4.97 C8.75,5.43 9.79,6.47 9.79,8.22 C9.79,10.53 7.88,11.85 5.47,11.85 C2.82,11.85 1.02,10.55 0.63,8.33 L3.63,8.27 Z" id="Shape"></path>
                <polygon id="Shape" points="12.72 0.34 22.45 0.34 22.45 2.87 19 2.87 19 11.61 16.13 11.61 16.13 2.87 12.72 2.87"></polygon>
                <polygon id="Shape" points="33.88 0.34 33.88 2.87 28.82 2.87 28.82 4.63 33.44 4.63 33.44 7.11 28.82 7.11 28.82 9.11 33.88 9.11 33.88 11.66 26 11.66 26 0.34"></polygon>
                <path d="M44.12,0.34 L48.33,11.61 L45.39,11.61 L44.6,9.42 L40.6,9.42 L39.82,11.61 L37,11.61 L41.21,0.34 L44.12,0.34 Z M41.47,7 L43.74,7 L42.6,3.82 L41.47,7 Z" id="Shape"></path>
                <polygon id="Shape" points="51.62 0.34 54.52 0.34 54.52 9.06 59.47 9.06 59.47 11.61 51.62 11.61"></polygon>
                <polygon id="Shape" points="61 0.34 70.72 0.34 70.72 2.87 67.32 2.87 67.32 11.61 64.42 11.61 64.42 2.87 61 2.87"></polygon>
                <polygon id="Shape" points="84.33 0.34 84.33 11.61 81.43 11.61 81.43 7.15 77.16 7.15 77.16 11.61 74.26 11.61 74.26 0.34 77.16 0.34 77.16 4.61 81.43 4.61 81.43 0.34"></polygon>
            </g>
            <path d="M92,46 L77.16,31.16 L75.68,29.68 L62.32,16.32 L60.84,14.84 L46,0 L31.16,14.84 L29.68,16.32 L16.32,29.68 L14.84,31.16 L0,46 L16.32,62.32 L31.16,47.48 L46,62.32 L60.84,47.48 L75.68,62.32 L92,46 Z M60.84,17.81 L74.19,31.16 L67.52,37.84 L60.84,44.52 L47.48,31.16 L54.16,24.48 L60.84,17.81 Z M46,3 L59.36,16.32 L52.68,23 L46,29.68 L39.32,23 L32.64,16.32 L46,3 Z M17.81,31.16 L31.16,17.81 L37.84,24.48 L44.52,31.16 L31.16,44.52 L24.48,37.84 L17.81,31.16 Z M16.32,59.36 L3,46 L16.32,32.64 L23,39.32 L29.68,46 L16.32,59.36 Z M46,59.36 L32.64,46 L46,32.64 L59.36,46 L46,59.36 Z M69,39.36 L75.68,32.68 L89,46 L75.68,59.36 L62.32,46 L69,39.36 Z" id="Shape"></path>
        </g>
    </g>
</svg>